<?xml version="1.0" encoding="UTF-8"?>
<svg version="1.1" xmlns="http://www.w3.org/2000/svg" width="512" height="512">
<path d="M0 0 C1.01790619 0.00215515 2.03581238 0.0043103 3.08456421 0.00653076 C17.69363523 0.05620146 32.02575853 0.30709809 46.375 3.3125 C47.34985352 3.51117676 48.32470703 3.70985352 49.32910156 3.91455078 C97.7109774 14.03517194 141.69928269 35.9516877 177.375 70.3125 C178.3640332 71.26068604 178.3640332 71.26068604 179.37304688 72.22802734 C188.86130305 81.37247479 197.6012044 90.66984009 205.375 101.3125 C206.23306152 102.46355017 207.09113451 103.61459177 207.94921875 104.765625 C213.98736829 112.95680614 219.34595521 121.47054105 224.375 130.3125 C224.73948242 130.94430176 225.10396484 131.57610352 225.47949219 132.22705078 C247.08534998 169.97532572 256.85198095 212.74189997 256.6875 255.9375 C256.68534485 256.95540619 256.6831897 257.97331238 256.68096924 259.02206421 C256.63129854 273.63113523 256.38040191 287.96325853 253.375 302.3125 C253.07698486 303.77478027 253.07698486 303.77478027 252.77294922 305.26660156 C242.65232806 353.6484774 220.7358123 397.63678269 186.375 433.3125 C185.74287598 433.97185547 185.11075195 434.63121094 184.45947266 435.31054688 C175.31502521 444.79880305 166.01765991 453.5387044 155.375 461.3125 C154.22394983 462.17056152 153.07290823 463.02863451 151.921875 463.88671875 C143.73224019 469.92427396 135.22961724 475.30707302 126.375 480.3125 C125.66778809 480.7146875 124.96057617 481.116875 124.23193359 481.53125 C101.09654164 494.5566741 75.92537591 503.30551461 49.9375 508.625 C49.21860596 508.77235596 48.49971191 508.91971191 47.7590332 509.0715332 C33.08339502 511.86090125 18.55831162 512.66142619 3.64770508 512.62817383 C0.70811513 512.6250221 -2.2304558 512.64854926 -5.16992188 512.67382812 C-18.54306192 512.71848737 -31.43916711 511.51301542 -44.625 509.3125 C-46.33055054 509.03031616 -46.33055054 509.03031616 -48.07055664 508.74243164 C-91.33802759 500.97044532 -132.38793216 480.98345309 -165.625 452.3125 C-166.37007813 451.67828125 -167.11515625 451.0440625 -167.8828125 450.390625 C-181.38779833 438.57948485 -194.05918743 425.82889772 -204.625 411.3125 C-205.48149066 410.16255169 -206.33826433 409.01281411 -207.1953125 407.86328125 C-213.23534209 399.67315742 -218.61867614 391.16870382 -223.625 382.3125 C-224.0271875 381.60528809 -224.429375 380.89807617 -224.84375 380.16943359 C-237.8691741 357.03404164 -246.61801461 331.86287591 -251.9375 305.875 C-252.08485596 305.15610596 -252.23221191 304.43721191 -252.3840332 303.6965332 C-255.35789088 288.05024391 -255.99800362 272.57681954 -255.9375 256.6875 C-255.93534485 255.66959381 -255.9331897 254.65168762 -255.93096924 253.60293579 C-255.88129854 238.99386477 -255.63040191 224.66174147 -252.625 210.3125 C-252.42632324 209.33764648 -252.22764648 208.36279297 -252.02294922 207.35839844 C-241.90232806 158.9765226 -219.9858123 114.98821731 -185.625 79.3125 C-184.99287598 78.65314453 -184.36075195 77.99378906 -183.70947266 77.31445312 C-174.56502521 67.82619695 -165.26765991 59.0862956 -154.625 51.3125 C-153.47394983 50.45443848 -152.32290823 49.59636549 -151.171875 48.73828125 C-142.98224019 42.70072604 -134.47961724 37.31792698 -125.625 32.3125 C-124.91778809 31.9103125 -124.21057617 31.508125 -123.48193359 31.09375 C-100.34654164 18.0683259 -75.17537591 9.31948539 -49.1875 4 C-48.46860596 3.85264404 -47.74971191 3.70528809 -47.0090332 3.5534668 C-31.36274391 0.57960912 -15.88931954 -0.06050362 0 0 Z " fill="#26A5E5" transform="translate(255.625,-0.3125)"/>
<path d="M0 0 C4.17632266 4.45474417 4.20335672 8.81771311 4.14697266 14.63769531 C3.85779833 21.25315858 3.00224667 27.80795529 2.1875 34.375 C2.00309587 35.89499035 1.81893461 37.41501018 1.63500977 38.93505859 C-0.23983054 54.3194237 -2.19312896 69.67096245 -5.25390625 84.87109375 C-5.92589345 88.38209905 -6.42228197 91.90866358 -6.9152832 95.44897461 C-7.8866187 102.2974388 -8.96696193 109.12222561 -10.1015625 115.9453125 C-10.39771957 117.73591095 -10.39771957 117.73591095 -10.69985962 119.56268311 C-12.89230647 132.79012124 -15.12106343 146.01144724 -17.36218262 159.23071289 C-17.96237305 162.77763734 -18.55840258 166.32523488 -19.15332031 169.87304688 C-20.00709165 174.95287851 -20.8795518 180.02913121 -21.76824951 185.10296631 C-22.08445829 186.92245878 -22.3949132 188.74296251 -22.69903564 190.56451416 C-26.88608488 215.55850907 -26.88608488 215.55850907 -35 224.875 C-40.33677523 228.6400656 -46.84764647 228.02646822 -53 227 C-63.46414135 223.5612539 -72.29644875 216.46474898 -81.15625 210.125 C-87.2137823 205.8114304 -93.39071734 201.68935596 -99.58786011 197.58050537 C-102.79161923 195.45598311 -105.99115472 193.32511306 -109.19140625 191.1953125 C-110.48843288 190.33234004 -111.78547068 189.46938437 -113.08251953 188.60644531 C-113.72731262 188.17738892 -114.37210571 187.74833252 -115.03643799 187.30627441 C-116.35179385 186.43122402 -117.66734755 185.55647093 -118.98309326 184.68200684 C-122.86423685 182.10189656 -126.73979246 179.51375594 -130.60791016 176.91415405 C-131.81023515 176.10805162 -133.01444983 175.30475927 -134.22070312 174.50454712 C-151.00065354 163.36767086 -151.00065354 163.36767086 -154 156 C-154.14894855 147.21203535 -149.38859733 142.58663224 -143.59375 136.453125 C-139.21257829 131.99082048 -134.68001032 127.77446666 -129.9296875 123.7109375 C-127.15892418 121.25426881 -124.597071 118.60640023 -122 115.96875 C-119.43694772 113.44574541 -116.72654176 111.12437183 -114 108.78125 C-111.91662922 106.9257479 -109.95718793 104.98776899 -108 103 C-105.56099918 100.52340379 -103.09257578 98.17969143 -100.4375 95.9375 C-95.537066 91.737128 -91.0589491 87.11029045 -86.54272461 82.50561523 C-83.01175558 78.92642286 -79.39047173 75.58064267 -75.54223633 72.34643555 C-73.5492252 70.60645512 -71.82849169 68.70892447 -70.125 66.6875 C-69.26261719 65.67236328 -69.26261719 65.67236328 -68.3828125 64.63671875 C-67.92648437 64.09660156 -67.47015625 63.55648437 -67 63 C-66.67 62.67 -66.34 62.34 -66 62 C-65.95919217 60.00041636 -65.95745644 57.99954746 -66 56 C-71.48447936 55.44054116 -74.72132136 57.21327814 -79.140625 60.16796875 C-79.83101868 60.61472458 -80.52141235 61.06148041 -81.23272705 61.52177429 C-83.5000324 62.99774827 -85.75128243 64.49587711 -88 66 C-88.75740479 66.50404358 -89.51480957 67.00808716 -90.29516602 67.52740479 C-95.23914188 70.82325885 -100.15962796 74.15297177 -105.07345581 77.49356079 C-125.98671452 91.70589713 -147.06720055 105.65722235 -168.20681763 119.52986145 C-173.70821733 123.14222208 -179.18629446 126.78668376 -184.64086914 130.46948242 C-195.71777829 137.65577482 -208.19489319 137.397636 -220.9375 135.375 C-224.18910801 134.603432 -227.38087815 133.73249192 -230.57324219 132.74511719 C-233.48957952 131.8496784 -236.42022965 131.00909263 -239.3515625 130.1640625 C-241.65176375 129.4868227 -243.9512424 128.80712392 -246.25 128.125 C-247.32717285 127.80982422 -248.4043457 127.49464844 -249.51416016 127.16992188 C-269.09107251 121.18683857 -269.09107251 121.18683857 -274 115 C-274.6875 111.75 -274.6875 111.75 -274 108 C-268.53640476 100.09028532 -257.48654189 96.69317661 -249 93 C-247.93378418 92.53319824 -246.86756836 92.06639648 -245.76904297 91.58544922 C-238.14351409 88.25094652 -230.50328355 84.95141935 -222.85839844 81.66162109 C-217.04677367 79.160171 -211.24244119 76.64191088 -205.4375 74.125 C-204.25599365 73.61348389 -203.0744873 73.10196777 -201.85717773 72.57495117 C-194.53188149 69.40312033 -187.2108233 66.22169801 -179.8928833 63.03292847 C-155.65034415 52.47013023 -131.40327369 41.93614492 -106.95039368 31.86820984 C-101.79975401 29.74683969 -96.6564053 27.60843543 -91.515625 25.46328735 C-54.29469138 9.93343286 -54.29469138 9.93343286 -38.3125 4 C-36.78484009 3.43188599 -36.78484009 3.43188599 -35.22631836 2.85229492 C-10.76840339 -6.0303059 -10.76840339 -6.0303059 0 0 Z " fill="#FDFEFE" transform="translate(371,157)"/>
</svg>
