<?xml version="1.0" encoding="UTF-8"?>
<svg version="1.1" xmlns="http://www.w3.org/2000/svg" width="512" height="512">
<path d="M0 0 C1.91982588 -0.00300305 3.83965118 -0.00640814 5.75947571 -0.01017761 C10.91323859 -0.01890901 16.06698481 -0.02135118 21.22075438 -0.0219934 C24.46142923 -0.02271054 27.7021 -0.02485729 30.94277382 -0.02749062 C42.30820605 -0.03671072 53.67362665 -0.04083002 65.0390625 -0.04003906 C75.53503676 -0.03944036 86.03095929 -0.0499601 96.5269205 -0.06578273 C105.61651411 -0.07898343 114.70609108 -0.08421772 123.79569417 -0.08358365 C129.18942392 -0.08333215 134.58310766 -0.08598537 139.97682762 -0.0967617 C259.30982225 -0.31819005 259.30982225 -0.31819005 295.89379883 31.14526367 C296.86704102 31.91870117 297.8402832 32.69213867 298.84301758 33.48901367 C325.94314064 56.10896105 331.07678265 95.84357036 334.28051758 128.58666992 C335.64897432 144.46539451 336.04413897 160.33632765 336.0390625 176.26733398 C336.04206551 178.18878239 336.0454706 180.11023019 336.04924011 182.03167725 C336.05797124 187.18950509 336.06041365 192.34731628 336.0610559 197.50515079 C336.06177298 200.74782795 336.06391963 203.99050105 336.06655312 207.23317719 C336.07577271 218.60394045 336.07989254 229.9746921 336.07910156 241.34545898 C336.07850268 251.84940564 336.08902611 262.35330063 336.10484523 272.85723424 C336.1180408 281.95190772 336.12328044 291.04656457 336.12264615 300.14124751 C336.12239453 305.53885775 336.12505491 310.93642204 336.1358242 316.33402252 C336.35591998 435.10604204 336.35591998 435.10604204 304.89379883 472.14526367 C303.73170898 473.60899414 303.73170898 473.60899414 302.54614258 475.10229492 C279.91421673 502.19261118 240.19965419 507.32784026 207.45239258 510.53198242 C191.57366799 511.90043917 175.70273485 512.29560382 159.77172852 512.29052734 C157.85028011 512.29353036 155.92883231 512.29693545 154.00738525 512.30070496 C148.84955741 512.30943608 143.69174622 512.3118785 138.53391171 512.31252074 C135.29123455 512.31323783 132.04856145 512.31538447 128.80588531 512.31801796 C117.43512205 512.32723755 106.0643704 512.33135738 94.69360352 512.33056641 C84.18965686 512.32996752 73.68576187 512.34049096 63.18182826 512.35631007 C54.08715478 512.36950564 44.99249793 512.37474528 35.89781499 512.374111 C30.50020475 512.37385938 25.10264046 512.37651976 19.70503998 512.38728905 C-99.06697954 512.60738483 -99.06697954 512.60738483 -136.10620117 481.14526367 C-137.08202148 480.37053711 -138.0578418 479.59581055 -139.06323242 478.79760742 C-166.18337365 456.14076505 -171.29481228 416.38448708 -174.49291992 383.60620117 C-175.83897506 368.06193982 -176.25637195 352.55001585 -176.25146484 336.953125 C-176.25446705 335.01211992 -176.25787196 333.07111543 -176.26164246 331.13011169 C-176.2703825 325.91437528 -176.27281641 320.69865533 -176.27345824 315.4829123 C-176.27417489 312.20456098 -176.27632076 308.92621369 -176.27895546 305.64786339 C-176.28817851 294.15391149 -176.29229451 282.6599711 -176.29150391 271.16601562 C-176.29090516 260.54564243 -176.30142495 249.92532036 -176.31724757 239.30496007 C-176.33044185 230.11264305 -176.33568283 220.92034247 -176.3350485 211.72801608 C-176.33479681 206.27114633 -176.33746107 200.81432203 -176.34822655 195.35746193 C-176.56476101 77.18029269 -176.56476101 77.18029269 -145.10620117 40.14526367 C-144.33147461 39.16944336 -143.55674805 38.19362305 -142.75854492 37.18823242 C-120.12661908 10.09791617 -80.41205653 4.96268708 -47.66479492 1.75854492 C-31.79138764 0.39052162 -15.92567889 -0.00507932 0 0 Z " fill="#2787F5" transform="translate(176.106201171875,-0.145263671875)"/>
<path d="M0 0 C1.04269043 -0.00004028 2.08538086 -0.00008057 3.15966797 -0.00012207 C5.35845994 0.00522599 7.55725188 0.02277792 9.75585938 0.05175781 C13.11387808 0.09361138 16.46988937 0.09282316 19.828125 0.0859375 C21.96876388 0.09643083 24.10939246 0.10936969 26.25 0.125 C27.25015137 0.12520142 28.25030273 0.12540283 29.28076172 0.12561035 C34.60352805 0.21559891 38.61251354 0.46312679 43.125 3.59375 C46.19829803 6.83084469 47.94383798 10.02341525 49.578125 14.15234375 C50.00029297 15.20663574 50.42246094 16.26092773 50.85742188 17.34716797 C51.48487305 18.95422607 51.48487305 18.95422607 52.125 20.59375 C52.51751953 21.58648926 52.91003906 22.57922852 53.31445312 23.60205078 C54.09923844 25.59054479 54.88143492 27.58006233 55.66113281 29.57055664 C65.46320212 54.48776379 76.78775499 79.90307269 94.125 100.59375 C94.82238281 101.44066406 95.51976562 102.28757812 96.23828125 103.16015625 C102.05316806 110.39136073 102.05316806 110.39136073 110.2734375 113.82421875 C112.22539552 113.84134119 114.17759256 113.72805396 116.125 113.59375 C117.06355262 109.61098644 117.26836546 105.87819883 117.30200195 101.79077148 C117.31185875 100.79446465 117.31185875 100.79446465 117.32191467 99.7780304 C117.34154406 97.59030009 117.35329036 95.40263829 117.36328125 93.21484375 C117.36735678 92.46212755 117.3714323 91.70941135 117.37563133 90.93388557 C117.39645345 86.94542852 117.41076873 82.95700541 117.42016602 78.96850586 C117.43118991 74.87904462 117.46555369 70.79013356 117.50533772 66.70086575 C117.53167489 63.53067621 117.53987312 60.36061406 117.54344749 57.19032478 C117.54827371 55.68464528 117.55977229 54.17896992 117.57848549 52.67339897 C117.72266736 40.29887142 116.17486231 29.74390329 108.4375 19.78125 C104.99447224 15.33517978 103.32760549 12.28696415 103.125 6.59375 C104.89141172 3.79185554 106.15549822 2.07850089 109.125 0.59375 C111.19169508 0.48674434 113.26187172 0.44487264 115.33129883 0.43261719 C116.63637894 0.42300964 117.94145905 0.4134021 119.28608704 0.40350342 C120.71806667 0.39865519 122.15004832 0.39437642 123.58203125 0.390625 C125.04693097 0.38487306 126.51183067 0.37911533 127.97673035 0.37335205 C131.0509781 0.36284029 134.12519969 0.35699906 137.19946289 0.35351562 C141.13378489 0.34803621 145.06775986 0.32402111 149.00197315 0.29554367 C152.02948506 0.27689332 155.05691388 0.27171038 158.08447838 0.27017975 C159.53452129 0.26715713 160.98456287 0.25914174 162.43454933 0.24599457 C164.46646881 0.22888901 166.49853139 0.23266565 168.53051758 0.23730469 C169.68586502 0.23365906 170.84121246 0.23001343 172.03157043 0.22625732 C175.52960591 0.6418163 177.3583963 1.43366971 180.125 3.59375 C182.90403176 7.18080717 182.42471452 11.53812094 182.42797852 15.87890625 C182.43641785 16.71187225 182.44485718 17.54483826 182.45355225 18.40304565 C182.47932428 21.15411962 182.49146971 23.90508627 182.50390625 26.65625 C182.52008223 28.56910043 182.53726233 30.4819426 182.55540466 32.39477539 C182.60109584 37.43034042 182.63589654 42.46591651 182.66760254 47.50158691 C182.71946926 55.56192923 182.78465895 63.6221499 182.85581779 71.68234253 C182.87864152 74.49858531 182.89491933 77.31481272 182.91053772 80.13110352 C182.92394619 81.8569353 182.93756115 83.58276549 182.95141602 85.30859375 C182.95533607 86.48384109 182.95533607 86.48384109 182.95933533 87.68283081 C182.9924405 91.15404087 183.19717942 94.25334286 184.125 97.59375 C190.30002799 98.019614 193.1534386 97.61331028 198.125 93.59375 C199.176875 92.81 200.22875 92.02625 201.3125 91.21875 C219.11765821 75.57060435 232.02321468 50.57289798 242.01171875 29.53125 C242.34300278 28.8350354 242.6742868 28.1388208 243.01560974 27.42150879 C244.65981277 23.95529022 246.28171185 20.48070359 247.8737793 16.99023438 C248.47545912 15.70168766 249.07741613 14.41327033 249.6796875 13.125 C250.20030762 11.98611328 250.72092773 10.84722656 251.25732422 9.67382812 C253.96684041 5.20542862 257.06507153 2.28039282 262.125 0.59375 C263.70351615 0.48234404 265.28614855 0.42493947 266.8684082 0.40087891 C267.82983231 0.38481598 268.79125641 0.36875305 269.78181458 0.35220337 C274.17346409 0.30765661 278.56496446 0.26669672 282.95678711 0.24365234 C285.2719935 0.22708848 287.58714866 0.19979307 289.90209961 0.16162109 C293.24359614 0.10682293 296.58389576 0.08497395 299.92578125 0.0703125 C301.47293571 0.03630844 301.47293571 0.03630844 303.05134583 0.00161743 C311.08193348 0.02519136 311.08193348 0.02519136 314.79272461 2.8828125 C317.125 5.59375 317.125 5.59375 317.640625 9.4921875 C315.69235898 33.44242328 294.06305092 59.69104542 280.84106445 78.81614685 C278.78985119 81.7862927 276.75378284 84.76671156 274.71722412 87.74691772 C273.21087922 89.93479308 271.68051079 92.10441002 270.14892578 94.2746582 C269.21398275 95.63802172 268.28017458 97.00216438 267.34765625 98.3671875 C266.90570419 98.97788589 266.46375214 99.58858429 266.00840759 100.2177887 C263.75932038 103.56934777 262.84776801 105.95096259 263.27294922 109.90527344 C264.09562559 113.46658997 264.64773507 114.95900593 267.1875 117.46875 C270.125 120.44080882 270.125 120.44080882 270.125 122.59375 C270.66511719 122.80773437 271.20523437 123.02171875 271.76171875 123.2421875 C274.97537262 125.0800788 277.37439662 127.5902778 279.9375 130.21875 C280.47375 130.76289551 281.01 131.30704102 281.5625 131.86767578 C285.58435599 135.97595785 289.41070662 140.20552298 293.125 144.59375 C294.03667033 145.64287534 294.94954078 146.69095841 295.86328125 147.73828125 C325.1071431 181.35267507 325.1071431 181.35267507 324.125 195.59375 C322.72079048 199.22817463 321.5933401 200.339059 318.15795898 202.20727539 C313.40672675 204.13362835 308.72519973 204.04307881 303.66015625 204.02734375 C302.6680162 204.0325856 301.67587616 204.03782745 300.65367126 204.04322815 C298.56347587 204.04962779 296.47324437 204.04833814 294.38305664 204.03979492 C291.20067672 204.03128523 288.02009359 204.06007566 284.83789062 204.09179688 C282.7994797 204.09340922 280.76106562 204.09283073 278.72265625 204.08984375 C277.77971207 204.10107773 276.83676788 204.11231171 275.86524963 204.12388611 C268.6519557 204.04851204 263.63150146 202.34224862 257.95092773 197.88964844 C257.40895752 197.3330957 256.8669873 196.77654297 256.30859375 196.203125 C255.68919922 195.57535156 255.06980469 194.94757813 254.43164062 194.30078125 C253.50641602 193.33205078 253.50641602 193.33205078 252.5625 192.34375 C251.94181641 191.71339844 251.32113281 191.08304688 250.68164062 190.43359375 C247.59354728 187.27143769 244.61634573 184.03944844 241.7265625 180.6953125 C230.89740709 168.20982616 219.21440845 156.34342253 205.125 147.59375 C204.3825 147.10519531 203.64 146.61664063 202.875 146.11328125 C197.79166852 143.11042616 191.9071163 142.3233658 186.125 143.59375 C183.44373576 146.4595668 182.75149456 148.39654784 182.75610352 152.28295898 C182.74922012 153.20749374 182.74233673 154.1320285 182.73524475 155.08457947 C182.74448219 156.57218529 182.74448219 156.57218529 182.75390625 158.08984375 C182.73652558 160.19596518 182.71894118 162.30208494 182.70117188 164.40820312 C182.69109325 167.72407086 182.68750441 171.03983046 182.68920898 174.35571289 C182.6856399 177.5590844 182.65830111 180.76162076 182.62890625 183.96484375 C182.63708878 184.95455673 182.6452713 185.94426971 182.65370178 186.963974 C182.60695845 191.28492967 182.55184876 193.87823475 180.30371094 197.64672852 C173.41814482 203.80006668 164.65683508 203.13759881 155.9375 203.09375 C155.27504272 203.09165527 154.61258545 203.08956055 153.93005371 203.08740234 C117.37972069 202.84987686 86.11243557 184.14976703 60.58251953 159.08740234 C56.77400554 155.18447293 53.45892059 150.89888085 50.125 146.59375 C49.55168945 145.89491699 48.97837891 145.19608398 48.38769531 144.47607422 C43.01484383 137.9020614 38.18555852 131.04444735 33.5 123.96875 C33.11237488 123.38515717 32.72474976 122.80156433 32.32537842 122.20028687 C-15.87122636 49.4795146 -15.87122636 49.4795146 -17.3125 12.09375 C-17.37308594 10.9903125 -17.43367188 9.886875 -17.49609375 8.75 C-16.79802562 5.2025846 -15.67953417 3.84557583 -12.86000061 1.63586426 C-8.83735095 -0.47600439 -4.44188648 -0.07281488 0 0 Z " fill="#FEFEFE" transform="translate(105.875,159.40625)"/>
</svg>
